<svg width="137" height="28" viewBox="0 0 137 28" fill="none" xmlns="http://www.w3.org/2000/svg">
<path d="M15.9645 3.98672V8.18672H21.6045V10.8507H15.9645V15.2907H22.3245V18.0267H12.6045V1.25072H22.3245V3.98672H15.9645Z" fill="#FF9D06"/>
<path d="M24.5139 11.3307C24.5139 9.98672 24.7779 8.79472 25.3059 7.75472C25.8499 6.71472 26.5859 5.91472 27.5139 5.35472C28.4419 4.79472 29.4739 4.51472 30.6099 4.51472C31.4739 4.51472 32.2979 4.70672 33.0819 5.09072C33.8659 5.45872 34.4899 5.95472 34.9539 6.57872V0.266724H38.3619V18.0267H34.9539V16.0587C34.5379 16.7147 33.9539 17.2427 33.2019 17.6427C32.4499 18.0427 31.5779 18.2427 30.5859 18.2427C29.4659 18.2427 28.4419 17.9547 27.5139 17.3787C26.5859 16.8027 25.8499 15.9947 25.3059 14.9547C24.7779 13.8987 24.5139 12.6907 24.5139 11.3307ZM34.9779 11.3787C34.9779 10.5627 34.8179 9.86672 34.4979 9.29072C34.1779 8.69872 33.7459 8.25072 33.2019 7.94672C32.6579 7.62672 32.0739 7.46672 31.4499 7.46672C30.8259 7.46672 30.2499 7.61872 29.7219 7.92272C29.1939 8.22672 28.7619 8.67472 28.4259 9.26672C28.1059 9.84272 27.9459 10.5307 27.9459 11.3307C27.9459 12.1307 28.1059 12.8347 28.4259 13.4427C28.7619 14.0347 29.1939 14.4907 29.7219 14.8107C30.2659 15.1307 30.8419 15.2907 31.4499 15.2907C32.0739 15.2907 32.6579 15.1387 33.2019 14.8347C33.7459 14.5147 34.1779 14.0667 34.4979 13.4907C34.8179 12.8987 34.9779 12.1947 34.9779 11.3787Z" fill="#FF9D06"/>
<path d="M54.1955 4.73072V18.0267H50.8115V16.3467C50.3795 16.9227 49.8115 17.3787 49.1075 17.7147C48.4195 18.0347 47.6675 18.1947 46.8515 18.1947C45.8115 18.1947 44.8915 17.9787 44.0915 17.5467C43.2915 17.0987 42.6595 16.4507 42.1955 15.6027C41.7475 14.7387 41.5235 13.7147 41.5235 12.5307V4.73072H44.8835V12.0507C44.8835 13.1067 45.1475 13.9227 45.6755 14.4987C46.2035 15.0587 46.9235 15.3387 47.8355 15.3387C48.7635 15.3387 49.4915 15.0587 50.0195 14.4987C50.5475 13.9227 50.8115 13.1067 50.8115 12.0507V4.73072H54.1955Z" fill="#FF9D06"/>
<path d="M63.2947 18.1947C62.1267 18.1947 61.0707 17.9947 60.1267 17.5947C59.1987 17.1947 58.4627 16.6187 57.9187 15.8667C57.3747 15.1147 57.0947 14.2267 57.0787 13.2027H60.6787C60.7267 13.8907 60.9667 14.4347 61.3987 14.8347C61.8467 15.2347 62.4547 15.4347 63.2227 15.4347C64.0067 15.4347 64.6227 15.2507 65.0707 14.8827C65.5187 14.4987 65.7427 14.0027 65.7427 13.3947C65.7427 12.8987 65.5907 12.4907 65.2867 12.1707C64.9827 11.8507 64.5987 11.6027 64.1347 11.4267C63.6867 11.2347 63.0627 11.0267 62.2627 10.8027C61.1747 10.4827 60.2867 10.1707 59.5987 9.86672C58.9267 9.54672 58.3427 9.07472 57.8467 8.45072C57.3667 7.81072 57.1267 6.96272 57.1267 5.90672C57.1267 4.91472 57.3747 4.05072 57.8707 3.31472C58.3667 2.57872 59.0627 2.01872 59.9587 1.63472C60.8547 1.23472 61.8787 1.03472 63.0307 1.03472C64.7587 1.03472 66.1587 1.45872 67.2307 2.30672C68.3187 3.13872 68.9187 4.30672 69.0307 5.81072H65.3347C65.3027 5.23472 65.0547 4.76272 64.5907 4.39472C64.1427 4.01072 63.5427 3.81872 62.7907 3.81872C62.1347 3.81872 61.6067 3.98672 61.2067 4.32272C60.8227 4.65872 60.6307 5.14672 60.6307 5.78672C60.6307 6.23472 60.7747 6.61072 61.0627 6.91472C61.3667 7.20272 61.7347 7.44272 62.1667 7.63472C62.6147 7.81072 63.2387 8.01872 64.0387 8.25872C65.1267 8.57872 66.0147 8.89872 66.7027 9.21872C67.3907 9.53872 67.9827 10.0187 68.4787 10.6587C68.9747 11.2987 69.2227 12.1387 69.2227 13.1787C69.2227 14.0747 68.9907 14.9067 68.5267 15.6747C68.0627 16.4427 67.3827 17.0587 66.4867 17.5227C65.5907 17.9707 64.5267 18.1947 63.2947 18.1947Z" fill="black"/>
<path d="M75.4957 6.65072C75.9277 6.04272 76.5197 5.53872 77.2717 5.13872C78.0397 4.72272 78.9117 4.51472 79.8877 4.51472C81.0237 4.51472 82.0477 4.79472 82.9597 5.35472C83.8877 5.91472 84.6157 6.71472 85.1437 7.75472C85.6877 8.77872 85.9597 9.97072 85.9597 11.3307C85.9597 12.6907 85.6877 13.8987 85.1437 14.9547C84.6157 15.9947 83.8877 16.8027 82.9597 17.3787C82.0477 17.9547 81.0237 18.2427 79.8877 18.2427C78.9117 18.2427 78.0477 18.0427 77.2957 17.6427C76.5597 17.2427 75.9597 16.7387 75.4957 16.1307V24.3627H72.1357V4.73072H75.4957V6.65072ZM82.5277 11.3307C82.5277 10.5307 82.3597 9.84272 82.0237 9.26672C81.7037 8.67472 81.2717 8.22672 80.7277 7.92272C80.1997 7.61872 79.6237 7.46672 78.9997 7.46672C78.3917 7.46672 77.8157 7.62672 77.2717 7.94672C76.7437 8.25072 76.3117 8.69872 75.9757 9.29072C75.6557 9.88272 75.4957 10.5787 75.4957 11.3787C75.4957 12.1787 75.6557 12.8747 75.9757 13.4667C76.3117 14.0587 76.7437 14.5147 77.2717 14.8347C77.8157 15.1387 78.3917 15.2907 78.9997 15.2907C79.6237 15.2907 80.1997 15.1307 80.7277 14.8107C81.2717 14.4907 81.7037 14.0347 82.0237 13.4427C82.3597 12.8507 82.5277 12.1467 82.5277 11.3307Z" fill="black"/>
<path d="M91.7613 6.79472C92.1933 6.09072 92.7533 5.53872 93.4413 5.13872C94.1453 4.73872 94.9453 4.53872 95.8413 4.53872V8.06672H94.9533C93.8973 8.06672 93.0973 8.31472 92.5533 8.81072C92.0253 9.30672 91.7613 10.1707 91.7613 11.4027V18.0267H88.4013V4.73072H91.7613V6.79472Z" fill="black"/>
<path d="M104.008 18.2427C102.728 18.2427 101.576 17.9627 100.552 17.4027C99.5285 16.8267 98.7205 16.0187 98.1284 14.9787C97.5525 13.9387 97.2645 12.7387 97.2645 11.3787C97.2645 10.0187 97.5604 8.81872 98.1525 7.77872C98.7605 6.73872 99.5844 5.93872 100.624 5.37872C101.664 4.80272 102.824 4.51472 104.104 4.51472C105.384 4.51472 106.544 4.80272 107.584 5.37872C108.624 5.93872 109.44 6.73872 110.032 7.77872C110.64 8.81872 110.944 10.0187 110.944 11.3787C110.944 12.7387 110.632 13.9387 110.008 14.9787C109.4 16.0187 108.568 16.8267 107.512 17.4027C106.472 17.9627 105.304 18.2427 104.008 18.2427ZM104.008 15.3147C104.616 15.3147 105.184 15.1707 105.712 14.8827C106.256 14.5787 106.688 14.1307 107.008 13.5387C107.328 12.9467 107.488 12.2267 107.488 11.3787C107.488 10.1147 107.152 9.14672 106.48 8.47472C105.824 7.78672 105.016 7.44272 104.056 7.44272C103.096 7.44272 102.288 7.78672 101.632 8.47472C100.992 9.14672 100.672 10.1147 100.672 11.3787C100.672 12.6427 100.984 13.6187 101.608 14.3067C102.248 14.9787 103.048 15.3147 104.008 15.3147Z" fill="black"/>
<path d="M125.961 4.73072V18.0267H122.577V16.3467C122.145 16.9227 121.577 17.3787 120.873 17.7147C120.185 18.0347 119.433 18.1947 118.617 18.1947C117.577 18.1947 116.657 17.9787 115.857 17.5467C115.057 17.0987 114.425 16.4507 113.961 15.6027C113.513 14.7387 113.289 13.7147 113.289 12.5307V4.73072H116.649V12.0507C116.649 13.1067 116.913 13.9227 117.441 14.4987C117.969 15.0587 118.689 15.3387 119.601 15.3387C120.529 15.3387 121.257 15.0587 121.785 14.4987C122.313 13.9227 122.577 13.1067 122.577 12.0507V4.73072H125.961Z" fill="black"/>
<path d="M133.188 7.49072V13.9227C133.188 14.3707 133.292 14.6987 133.5 14.9067C133.724 15.0987 134.092 15.1947 134.604 15.1947H136.164V18.0267H134.052C131.22 18.0267 129.804 16.6507 129.804 13.8987V7.49072H128.22V4.73072H129.804V1.44272H133.188V4.73072H136.164V7.49072H133.188Z" fill="black"/>
<path d="M16.1009 23.9032C8.19339 20.9466 4.86588 15.6864 3.84207 7.79158C3.71302 6.79647 2.8831 6.02672 1.87966 6.02672C0.813082 6.02672 -0.0581451 6.89872 0.00303755 7.96353C0.760648 21.1489 9.24163 26.167 15.2208 27.6798C16.1686 27.9196 17.101 27.3282 17.384 26.3924C17.6959 25.3616 17.1096 24.2804 16.1009 23.9032Z" fill="#2F7B74"/>
</svg>
